<?xml version="1.0" encoding="utf-8"?>
<svg xmlns="http://www.w3.org/2000/svg" viewBox="539.8735 1319 2463.1267 881.6567" width="2463.1267px" height="881.6567px"><g id="object-0" transform="matrix(1, 0, 0, 1, -5.684341886080802e-14, 1.1368683772161603e-13)"><path d="M1405.34 1384.47c8.33.09 12.85 2.85 19.15 8.05l3.07 2.5a212 212 0 0 1 9.53 8.57l1.62 1.53c18.74 17.94 25.85 34.96 26.57 60.78.26 12.14.05 24.25-.41 36.38-.35 9.3-.41 18.61-.46 27.92-.1 16.6-.42 33.17-.86 49.75q-.66 24.12-.97 48.22l-.04 3.02-.17 15.02A8936 8936 0 0 1 1460 1770c-1.84.62-1.84.62-4 1a51 51 0 0 1-5.56-4.88l-3.22-3.08-1.63-1.56c-2.3-2.14-4.71-4.09-7.15-6.04a217 217 0 0 1-10.94-9.44 279 279 0 0 0-13.82-11.79 207 207 0 0 1-7.68-6.71q-5.12-4.66-10.5-9a291 291 0 0 1-12.97-11.25c-2.62-2.33-5.3-4.55-8.03-6.75a291 291 0 0 1-12.97-11.25c-2.6-2.31-5.26-4.5-7.97-6.69-4.77-3.86-9.3-7.93-13.8-12.09-3.6-3.22-7.33-6.23-11.08-9.26a207 207 0 0 1-7.68-6.71q-5.12-4.66-10.5-9a291 291 0 0 1-12.97-11.25c-2.62-2.33-5.3-4.55-8.03-6.75a291 291 0 0 1-12.97-11.25c-2.6-2.31-5.26-4.5-7.97-6.69-4.77-3.86-9.3-7.93-13.8-12.09-3.6-3.22-7.33-6.23-11.08-9.26a207 207 0 0 1-7.68-6.71q-5.12-4.66-10.5-9a291 291 0 0 1-12.97-11.25c-2.62-2.33-5.3-4.55-8.03-6.75a289 289 0 0 1-12.94-11.22 303 303 0 0 0-11.31-9.43C1178 1532 1178 1532 1176 1530l-.01 3.75a225023 225023 0 0 1-.5 135.8l-.2 55.9a14470 14470 0 0 1-.13 35.32v2.82c-.05 6.3-.05 6.3-1.16 7.41-8.48 1.84-15.89 1.65-23.45-2.95-6.12-4.26-11.57-9.16-16.91-14.35l-1.46-1.4c-18.05-17.59-23.74-34.73-24.14-59.88-.08-8.22.17-16.4.5-24.61.32-7.92.38-15.84.43-23.76q.16-21.18.79-42.34.6-20.51.88-41.03l.03-2.57.17-12.78c.44-35.12 1.2-70.22 2.16-105.33q11.47-.32 22.95-.47 5.33-.06 10.66-.2 6.15-.17 12.29-.2 1.88-.08 3.82-.15c6.91 0 10.74.73 15.97 5.42q2.2 2.27 4.31 4.6 2.69 2.25 5.44 4.44c4.77 3.86 9.3 7.94 13.81 12.1 2.67 2.39 5.4 4.65 8.19 6.9 4.53 3.66 8.82 7.5 13.08 11.47a190 190 0 0 0 9.98 8.59c4.52 3.63 8.78 7.47 13.02 11.41 3.23 3 6.55 5.83 9.98 8.59 3.98 3.2 7.77 6.53 11.5 10 4.61 4.29 9.38 8.3 14.29 12.25 3.78 3.13 7.35 6.46 10.96 9.79 2.67 2.39 5.4 4.65 8.19 6.9 4.53 3.66 8.82 7.5 13.08 11.47a190 190 0 0 0 9.98 8.59c3.98 3.2 7.77 6.53 11.5 10 4.61 4.29 9.38 8.3 14.29 12.25 3.78 3.13 7.35 6.46 10.96 9.79 2.67 2.39 5.4 4.65 8.19 6.9 5 4.02 9.68 8.3 14.35 12.69 2.7 2.48 5.54 4.76 8.41 7.05l2.73 2.17 2.07 1.65.01-3.87.36-102.03.01-2.25.26-73.04.14-40.3.06-16.97v-2.92c.05-7.41.11-7.8 7.5-8.15M546.05 1655.87h7.04l3.9-.01h10.8l11.6-.02 41.31-.01 52.55-.02h5.73q22.97 0 45.93-.02a48627 48627 0 0 1 73.64-.03 10676 10676 0 0 1 34.07-.01h12.51l3.62-.01c11.64.04 23.4 1.04 34.44 4.95l2.28.79c17.7 6.38 30.32 17.99 39.1 34.46 7 15.4 6.9 31.77 6.86 48.34l.02 6.67v13.9q-.02 8.85.03 17.69.03 6.87.02 13.75l.01 6.51c.12 22.33-2.76 43.19-18.97 59.92-16.01 14.37-34.3 19.8-55.6 19.62h-4.38q-5.88 0-11.76-.04l-12.34-.02q-11.65 0-23.31-.06-13.29-.05-26.56-.07-27.3-.04-54.59-.15l-.73-1.63-14.4-32.45-1.25-2.81-1.22-2.73-1.18-2.66q-1.3-2.88-2.63-5.74l-1.4-2.97-1.27-2.7C699 1826 699 1826 699 1823h2.51q30.25-.1 60.5-.24 14.63-.07 29.25-.1l25.5-.1 13.5-.06q6.36 0 12.71-.05l4.66-.02q3.19 0 6.38-.03l3.6-.02c4.82-.54 8.88-1.87 12.39-5.38.2-2.93.28-5.76.27-8.68l.02-2.73.01-8.95.01-6.21v-13.04q0-8.36.04-16.7.02-6.42.01-12.84 0-3.07.02-6.16v-8.62q0-1.27.02-2.57c-.05-4.58-.2-7.94-3.4-11.5-5.45-2.47-10.76-2.29-16.63-2.28l-3.24-.02-10.77-.02-7.84-.03-18.88-.05q-10.93-.02-21.85-.07l-57.66-.16L600 1716v296h-60a510285 510285 0 0 1-.08-206.46l-.03-85.63a25428 25428 0 0 1-.01-47.15v-13.36c.22-4.36 2.32-3.53 6.17-3.53" style="fill: rgb(255, 255, 255);"/><path d="M957.37 1640.49c8.14.08 12.53 2.6 18.69 7.7l2.93 2.39q4.67 3.97 9.11 8.19l1.55 1.46c17.99 17.24 24.71 33.65 25.4 58.43.26 11.71.05 23.39-.4 35.1a872 872 0 0 0-.43 26.92q-.17 24-.83 48-.62 23.25-.92 46.51l-.03 2.91-.18 14.49c-.46 39.81-1.29 79.6-2.26 119.41h-60v-55H680v55h-60v-281h18l41 41v125h271l-.09-167.75v-23.75l-.02-15.92a16245 16245 0 0 1-.01-37.78v-8.04c.28-4.1 4.16-3.12 7.5-3.27M1999.1 1651.51l3.73-.02 4.07.04h4.3q5.86-.02 11.72.03 6.18.02 12.37.02l20.89.06q13.2.06 26.42.07l27.92.06c24.5.05 48.98.51 73.48 1.23l1.44 3.82.81 2.16q1.33 3.65 2.47 7.4l.9 2.95.95 3.1 1 3.25 5.24 17.12 3.86 12.6.78 2.55c.55 2.05.55 2.05.55 4.05h-3.03q-36.56.06-73.12.18-17.67.07-35.36.1-15.4 0-30.82.07-8.16.04-16.31.04-7.7 0-15.37.05h-5.63c-9.59-.02-17.68-.02-26.36 4.56l-3 1c-4.12 6.83-5.45 14.2-5.39 22.05l-.01 2.62q-.02 4.32 0 8.63l-.02 6.2q-.02 8.42-.02 16.82v14.05q-.03 16.56 0 33.13.01 17.09-.04 34.17-.02 14.7-.02 29.37l-.01 17.52q-.03 8.24 0 16.48v6.04q-.01 4.13 0 8.25l-.02 2.41c.07 5.19 1.1 8.15 4.53 12.26 5.4 3.33 10.36 4.12 16.61 4.14l3.41.02h3.73l3.97.01 10.91.03q5.9 0 11.77.04l20.4.05 29.47.08a106553 106553 0 0 0 97.18.27l14.36.04 119.19.32 1.94 4.82 1.09 2.7q1.5 3.85 2.7 7.79l.86 2.76.86 2.86 8.52 27.97.8 2.7.73 2.36c.5 2.04.5 2.04.5 5.04a123279 123279 0 0 1-151.22.22h-3.21q-25.73.03-51.46.09-26.4.06-52.83.07-16.29 0-32.58.05-11.17.03-22.36.02-6.45 0-12.89.03-5.9.03-11.83 0-2.12 0-4.25.02c-18.89.16-37.34-4.73-51.2-18.2-15.45-16.37-20.34-37.26-20.3-59.27l-.01-2.92-.02-16.55-.01-30.48-.02-43q0-16.95-.02-33.9a26915 26915 0 0 1-.03-54.4 6636 6636 0 0 1-.01-25.12v-9.2l-.01-2.7c.02-4.34.12-7.86 2.26-11.76 2.14-2.07 2.14-2.07 4.81-4.13l3-2.35 1.58-1.24c2.76-2.2 5.43-4.49 8.11-6.78q7.28-6.17 14.69-12.19a750 750 0 0 0 9.31-7.81q8.66-7.35 17.5-14.5l2.27-2.1c3.26-2.27 4.9-2.4 8.84-2.39M2634 1663c1.54 1.54 1.13 2.93 1.14 5.07l.02 2.68.01 6.1.04 10.49.08 23.62.08 23.34a66099 66099 0 0 1 .27 76.95l.04 11.37.32 94.38 1.36-1.1 6.2-5.06 2.14-1.74q6.6-5.36 13.3-10.6a910 910 0 0 0 15-12 992 992 0 0 1 16.71-13.34q6.7-5.26 13.29-10.66a992 992 0 0 1 16.71-13.34q6.7-5.26 13.29-10.66a992 992 0 0 1 16.71-13.34q6.7-5.26 13.29-10.66 8.28-6.76 16.7-13.33 6.74-5.3 13.36-10.73a671 671 0 0 1 17.6-13.85c4.52-3.48 8.92-7.1 13.33-10.7a767 767 0 0 1 13.01-10.39 891 891 0 0 0 15-12 992 992 0 0 1 16.71-13.34q6.7-5.26 13.29-10.66 7.7-6.29 15.5-12.44l1.63-1.28 3.1-2.4q1.8-1.4 3.52-2.92c5.15-4.32 8.78-5.32 15.42-5.14h2.66q4.32.01 8.64.1l6.02.02q7.89.04 15.78.15 8.07.08 16.13.12 15.8.1 31.6.29c0 4 0 4-1.4 5.61l-1.97 1.56-2.17 1.75-2.34 1.83-2.37 1.9q-3.37 2.69-6.75 5.35l-5.06 4.06-2.3 1.83q-5.22 4.19-10.39 8.42a900 900 0 0 1-15.19 12.13 905 905 0 0 0-19.76 16c-9 7.44-18.04 14.82-27.24 22a907 907 0 0 0-19.76 16c-9 7.44-18.04 14.82-27.24 22a907 907 0 0 0-19.76 16c-9 7.44-18.04 14.82-27.24 22a907 907 0 0 0-19.76 16c-9 7.44-18.04 14.82-27.24 22a907 907 0 0 0-19.76 16c-9 7.44-18.04 14.82-27.24 22a907 907 0 0 0-19.76 16c-9 7.44-18.04 14.82-27.24 22a907 907 0 0 0-19.76 16q-6.22 5.15-12.49 10.25l-1.75 1.43q-1.82 1.48-3.67 2.9c-2.52 2.02-2.52 2.02-5.1 4.7-7.74 7.4-13.97 9.42-24.63 9.33q-4.27-.13-8.53-.36l-5.88-.15q-7.13-.19-14.25-.54a7444 7444 0 0 1-2.56-129.64c-.2-14.37-.56-28.73-.99-43.1q-.64-22.2-.78-44.41c-.05-8.3-.19-16.58-.53-24.87-2.28-56.46-2.28-56.46 17.93-78.97a212 212 0 0 1 10.97-10.93c3.5-3.3 7.1-6.43 10.79-9.5l2.8-2.37c6.94-5.33 12.7-6.45 21.37-5.21M1400 1749c3.11.7 4.94 1.5 7.4 3.55l3.97 3.33 6.52 5.39q4.6 3.73 9.3 7.36c5.13 3.99 10.1 8.13 15.03 12.37 4.67 3.98 9.54 7.63 14.51 11.22 2.27 1.78 2.27 1.78 3.27 3.78q.14 2.9.13 5.8l.02 3.75v8.47l.02 19.2.02 25.82q0 12 .02 24a10312 10312 0 0 1 .03 32.95 2646 2646 0 0 1 .01 15.84c.1 22.4-4.23 41.21-19.92 57.86-13.75 13.64-34.03 22.44-53.47 22.43h-36.53l-22.04-.01-31.87-.02a122549 122549 0 0 1-101.92-.04h-18.66L1047 2012a8626 8626 0 0 1-9.74-30.55l-3.54-11.15-1.13-3.5-1.03-3.28-.91-2.87a26 26 0 0 1-.65-7.65h2.25a245970 245970 0 0 0 148.02-.32h3.19q25.57-.07 51.15-.1l52.48-.12 32.38-.07a12662 12662 0 0 0 35.02-.07 2811 2811 0 0 0 15.98-.04c13.38.3 13.38.3 25.6-4.28 3.5-3.61 3.08-6.86 3.09-11.64l.01-2.42.04-8.07.03-5.76.06-15.69.08-16.38.14-31.03.16-35.33zM1480 1706h58v247h259c8.36 25.1 8.36 25.1 11.8 36.4l1.99 6.46 2.4 7.88c.81 3.26.81 3.26.81 8.26h-335l-.06-152.44-.03-48.22v-28.4l-.02-41-.01-23.24v-9.62c.12-2.08.12-2.08 1.12-3.08M2204 1652a261216 261216 0 0 1 149.45-.08l61.98-.03a15109 15109 0 0 1 35.7-.01h8.1c1.77.12 1.77.12 2.77 1.12q.14 2.76.11 5.53v3.58l-.01 3.9v3.96l-.03 10.45-.02 10.66-.05 20.92h-42v300h-59v-300h-140c-17-55-17-55-17-60" style="fill: rgb(255, 255, 255);"/><path d="M1034 1319c15 0 15 0 19.88 3.2q2.14 2.16 4.18 4.43l2.3 2.37q3.59 3.74 7.08 7.56 2.4 2.52 4.8 5.03 3.4 3.53 6.75 7.13A166 166 0 0 0 1093 1362c1 1 1 1 1.12 3.37v40.34l-.01 22.4-.02 32.39a126768 126768 0 0 1-.04 103.6v18.94L1094 1714c-4.15-.85-6.53-2.9-9.6-5.71l-1.65-1.5a733 733 0 0 1-14.98-14.01q-4.95-4.77-10.06-9.34a288 288 0 0 1-9.74-9.13 96 96 0 0 0-3.72-3.37c-5.13-4.44-6.6-7.49-10.25-13.94v-34H820c0-4 0-4 1.95-5.97l2.74-2.1 3.04-2.37 1.62-1.26c2.78-2.2 5.46-4.5 8.15-6.8a872 872 0 0 1 14.7-12.2q4.6-3.8 9.11-7.67 6.66-5.67 13.57-11c5.07-3.94 9.97-8.03 14.8-12.26 4.46-3.88 8.91-7.77 13.45-11.56l2.5-2.1A27 27 0 0 1 913 1544c1 3 1 3-4 18l125 1zM1785 1369c19.97 0 30.8 7.25 44.43 20.72 26.57 27.91 20.5 71.91 19.68 107.51-.2 8.17-.51 16.33-.81 24.5q-.53 14.52-.75 29.05l-.04 2.08-.16 10.33a3830 3830 0 0 1-2.25 85.12q-.14 4.1-.22 8.19l-.16 5.16-.02 2.36c-.14 3.72-.5 5.7-2.76 8.7a58 58 0 0 1-7.94 5.28 205 205 0 0 0-5.44 4.44l-2.77 2.27-2.79 2.29-5.5 4.5-2.75 2.25-10.98 8.97a577 577 0 0 0-5.73 4.78l-2.91 2.44-2.62 2.21C1790 1714 1790 1714 1785 1716v-43h-215c1.16-4.65 2.07-5.22 5.75-8.06l3.02-2.38 1.6-1.26c2.76-2.2 5.44-4.5 8.13-6.8a875 875 0 0 1 14.7-12.2q4.6-3.8 9.11-7.67 6.66-5.67 13.57-11c5.07-3.94 9.97-8.03 14.8-12.26 4.46-3.88 8.91-7.77 13.44-11.56l2.51-2.1a27 27 0 0 1 7.37-3.71c-.54 6.86-1.7 11.08-4 18l125 1zM1971.19 1584.88l3.29.05 2.52.07q.7 12.2 1.12 24.41.19 5.67.5 11.34c1.53 26.47 1.53 26.47-3.57 32.81a39 39 0 0 1-9.3 6.47c-2.72 1.5-4.97 3.5-7.31 5.53l-2.67 2.17a605 605 0 0 0-9.08 7.64 370 370 0 0 1-13.57 11 366 366 0 0 0-16.72 13.93 546 546 0 0 1-16.4 13.7q-8.83 7.16-17.5 14.5c-6.65 5.65-13.4 11.17-20.17 16.67q-7.39 6.02-14.64 12.2a370 370 0 0 1-13.57 11 366 366 0 0 0-16.72 13.93 546 546 0 0 1-16.4 13.7q-8.83 7.16-17.5 14.5c-6.65 5.65-13.4 11.17-20.17 16.67q-7.39 6.02-14.64 12.2a370 370 0 0 1-13.57 11 366 366 0 0 0-16.72 13.93 546 546 0 0 1-16.4 13.7q-8.83 7.16-17.5 14.5c-6.65 5.65-13.4 11.17-20.17 16.67a835 835 0 0 0-16.48 13.76q-1.54 1.32-3.1 2.6-1.94 1.63-3.77 3.35c-5.93 5.19-9.98 6.04-17.73 5.62l-3.3-.09q-3.98-.1-7.93-.25c-6.2-.21-12.39-.3-18.58-.41q-14.4-.24-28.8-.53l-3.25-.07-7.39-.15q-.08-2.91-.13-5.82l-.07-3.28c.2-2.9.2-2.9 2.22-5.72l2.8-1.87 3.04-2.17 3.14-2.14a348 348 0 0 0 5.5-4.5l55-45 2.77-2.27 5.27-4.3q8.49-6.95 16.96-13.93a5980 5980 0 0 1 25-20.5l121-99 2.77-2.27 5.27-4.3q8.49-6.95 16.96-13.93a5980 5980 0 0 1 25-20.5l101.72-83.22 5.81-4.78 2.97-2.44 2.69-2.21c4.16-3.33 6.2-4.09 11.5-3.97" style="fill: rgb(255, 255, 255);"/><path d="M1035 1686c11.65 5.5 21.98 14.22 31.69 22.56l1.96 1.68c17.33 15.15 26.74 30.42 28.66 53.64 1.53 24.97.47 50.24-1.51 75.16l-.24 3.25a270 270 0 0 1-.51 5.9A29.4 29.4 0 0 0 1099 1866c3.01 3.43 6.32 5.82 11 6.13h2.34l2.7.03h2.96l3.15.01 10.5.04 23.7.08 23.42.08a66965 66965 0 0 0 77.17.27l11.4.04 94.66.32c1.75 4.04 3.42 8.02 4.72 12.23l.9 2.93.95 3.1 1 3.24 2.07 6.74 3.17 10.33 2.01 6.57.97 3.12.88 2.9.78 2.55c.55 2.29.55 2.29.55 6.29a74691 74691 0 0 1-117.84.22h-2.5q-20.05.03-40.09.09-20.59.06-41.18.07-12.69 0-25.38.05-8.7.03-17.44.02-5.02 0-10.03.03c-16.94.09-33.77.09-49.04-8.3l-2-1.04c-18.1-9.78-30.1-24.8-36.5-44.14-3.67-12.9-4.15-25.42-4.13-38.7v-84.74a26475 26475 0 0 1 0-51.42v-15.37c.13-2.77.13-2.77 1.13-3.77M1905 1719v293h-60v-93h-182c1.13-4.5 1.7-4.91 5.25-7.56q6.22-4.78 12.19-9.88a863 863 0 0 1 14.74-12.24 734 734 0 0 0 9.38-7.88q6.83-5.8 13.85-11.35 4.56-3.7 9.03-7.53c9.05-7.7 18.27-15.16 27.56-22.56l2 1c-1 6-1 6-7 17l95 1c-.6-30.02-.6-30.02-1.35-60.04-.07-5.85-.07-5.85-.08-8.6q-.04-2.84-.15-5.67c-.65-16.78-.65-16.78 4.82-22.76 3.1-2.88 6.4-5.35 9.92-7.69 2.64-1.79 5.03-3.8 7.46-5.87l2.64-2.13q4.66-3.83 9.24-7.74 7.49-6.37 15.13-12.55 2.96-2.44 5.8-5.01c2.57-1.94 2.57-1.94 6.57-1.94M1026 1363l3 1q.39 14.4.57 28.82.08 6.69.26 13.38.18 6.46.21 12.94.03 2.46.12 4.91c.45 12.78.45 12.78-3.5 18.1a79 79 0 0 1-8.66 6.85q-2.7 2.2-5.37 4.44l-2.75 2.21q-4.73 3.87-9.38 7.85a899 899 0 0 1-14.69 12.19 750 750 0 0 0-9.31 7.81 901 901 0 0 1-14.69 12.19 750 750 0 0 0-9.31 7.81 901 901 0 0 1-14.69 12.19c-3.7 3.03-7.33 6.13-10.98 9.23q-5.08 4.31-10.27 8.52A583 583 0 0 0 904 1544a680 680 0 0 1-15.22 12.72q-4.67 3.85-9.28 7.78a901 901 0 0 1-14.69 12.19 750 750 0 0 0-9.31 7.81 901 901 0 0 1-14.69 12.19 750 750 0 0 0-9.31 7.81 901 901 0 0 1-14.69 12.19 874 874 0 0 0-10.95 9.2 832 832 0 0 1-13.81 11.43c-1.92 1.52-1.92 1.52-3.05 2.68q-4.28.14-8.56.11h-2.72l-15.13-.02-16.3-.02-16.64-.02L697 1640c.84-4.53 3.41-6.41 6.88-9.19l1.77-1.46L711 1625l5.5-4.5 2.69-2.19a750 750 0 0 0 9.31-7.81 901 901 0 0 1 14.69-12.19 750 750 0 0 0 9.31-7.81 901 901 0 0 1 14.69-12.19 750 750 0 0 0 9.31-7.81 901 901 0 0 1 14.69-12.19 750 750 0 0 0 9.31-7.81 901 901 0 0 1 14.69-12.19 750 750 0 0 0 9.31-7.81 901 901 0 0 1 14.69-12.19 750 750 0 0 0 9.31-7.81 901 901 0 0 1 14.69-12.19 750 750 0 0 0 9.31-7.81 901 901 0 0 1 14.69-12.19 750 750 0 0 0 9.31-7.81 901 901 0 0 1 14.69-12.19 750 750 0 0 0 9.31-7.81 901 901 0 0 1 14.69-12.19 750 750 0 0 0 9.31-7.81 901 901 0 0 1 14.69-12.19 750 750 0 0 0 9.31-7.81 901 901 0 0 1 14.69-12.19 750 750 0 0 0 9.31-7.81q7.26-6.16 14.66-12.16 5.8-4.8 11.51-9.71a77 77 0 0 1 7.33-5.63M1779 1414q.39 14.82.57 29.65.08 6.9.26 13.77.18 6.66.21 13.3.03 2.54.12 5.07c.45 13.2.45 13.2-3.56 18.2a70 70 0 0 1-8.6 6.01q-1.8 1.44-3.53 2.97a1007 1007 0 0 1-17.66 14.72 750 750 0 0 0-9.31 7.81 901 901 0 0 1-14.69 12.19 750 750 0 0 0-9.31 7.81 901 901 0 0 1-14.69 12.19 750 750 0 0 0-9.31 7.81 901 901 0 0 1-14.69 12.19 750 750 0 0 0-9.31 7.81 901 901 0 0 1-14.69 12.19 750 750 0 0 0-9.31 7.81 901 901 0 0 1-14.69 12.19 750 750 0 0 0-9.31 7.81 901 901 0 0 1-14.69 12.19 750 750 0 0 0-9.31 7.81 901 901 0 0 1-14.69 12.19 750 750 0 0 0-9.31 7.81c-4.8 4.09-9.63 8.16-14.61 12.03-2.95 2.37-2.95 2.37-5.19 5.3-5.21 5.8-9.48 8.37-17.38 9.06-7.35.3-14.68.13-22.03-.13q-5.3-.16-10.6-.22-10.35-.18-20.69-.54-.4-6.14-.6-12.32-.09-2.1-.23-4.18c-.77-11.55-.77-11.55 3.2-16.38a84 84 0 0 1 8.63-6.12q1.8-1.44 3.53-2.97a1007 1007 0 0 1 17.66-14.72 750 750 0 0 0 9.31-7.81 901 901 0 0 1 14.69-12.19 750 750 0 0 0 9.31-7.81 901 901 0 0 1 14.69-12.19 750 750 0 0 0 9.31-7.81 901 901 0 0 1 14.69-12.19 750 750 0 0 0 9.31-7.81 901 901 0 0 1 14.69-12.19 750 750 0 0 0 9.31-7.81 901 901 0 0 1 14.69-12.19 750 750 0 0 0 9.31-7.81 901 901 0 0 1 14.69-12.19 750 750 0 0 0 9.31-7.81 901 901 0 0 1 14.69-12.19 750 750 0 0 0 9.31-7.81 901 901 0 0 1 14.69-12.19 750 750 0 0 0 9.31-7.81 901 901 0 0 1 14.69-12.19 750 750 0 0 0 9.31-7.81 887 887 0 0 1 14.68-12.18q3.9-3.23 7.76-6.51c4.36-3.71 8.72-7.41 13.18-11l2.08-1.67c1.8-1.14 1.8-1.14 4.8-1.14M2481 1730h60v282h-60zM2740 1932c-.6 6.2-1.9 12.1-3.38 18.14-.73 2.86-.73 2.86-.62 5.86l3.95.48 104.24 12.71 2.3.28 133.15 16.23 2.94.36 2.71.33 2.34.29c2.8.38 5.58.86 8.37 1.32v24h-354v-3a100 100 0 0 1 6.38-5.69l1.94-1.63q6.4-5.34 12.95-10.5 5.2-4.16 10.36-8.37l2.06-1.68 4.21-3.42 10.1-8.21 4-3.25 10-8.13 14.35-11.65 2.17-1.76 4.08-3.31 1.88-1.53q.9-.7 1.8-1.45 1.72-1.41 3.37-2.9c3.15-2.8 3.95-3.52 8.35-3.52M2575.38 2059.69l2.57-.05c4.82 0 8.16.18 12.05 3.36 1.27 2.53 1.13 4.3 1.15 7.14l.02 3.3v3.64l.03 3.82.05 16.88.04 20.3q.02 11.73.08 23.44.04 9.06.05 18.12 0 5.4.03 10.82.04 6.03.02 12.07l.04 3.62c-.03 4.6-.06 7.93-2.1 12.09-3.27 2.39-5.36 2.39-9.4 2.4l-2.1.01q-3.45.02-6.88-.02h-4.82q-5.04 0-10.1-.03-6.42-.05-12.86-.01-4.98 0-9.95-.02h-4.74c-10.49.03-21.86-.19-30.02-7.82-7.33-8.34-12.85-15.34-12.81-26.78l-.02-2.4-.01-7.86-.01-5.46v-11.44q0-7.34-.04-14.67-.02-5.64-.01-11.28 0-2.7-.02-5.4v-7.56q0-1.11-.02-2.25c.04-3.02.27-5.36 1.53-8.11 2.7-2.23 4.64-2.05 8.11-2.05l3.9-.04 4.23.01 4.33-.03q5.7-.06 11.4-.05 9.13-.02 18.25-.1h6.36l3.92-.02h3.44c2.88-.26 4.54-.67 6.93-2.26 1.96-3.93 1.36-8.88 1.52-13.2.5-3.95 1.38-6.44 3.48-9.8 4.15-2.77 7.5-2.33 12.38-2.31m-57.09 54c-1.56 2.79-1.68 4.55-1.7 7.73l-.03 3.3v7.17q-.02 3.83 0 7.64 0 5.83-.06 11.68v7.41l-.03 3.53c.04 4.56.1 7.94 2.07 12.08 3.38 2.43 6.35 2.47 10.37 2.4h2.3q2.41 0 4.83-.03 3.67-.05 7.36 0l4.7-.03 2.21.01c3.26-.07 5.26-.25 7.88-2.27 2.23-2.84 2.31-4.26 2.31-7.84l.03-3.36-.03-3.61v-3.72q0-3.9-.03-7.79-.04-5.96-.01-11.93l-.03-7.56.01-3.61-.04-3.36-.01-2.95c-.46-3.04-1.2-4.42-3.39-6.58-2.89-.4-5.4-.56-8.28-.53l-2.46-.01q-2.56 0-5.13.02-3.93.02-7.86-.03l-4.99.02-2.38-.03c-4.23 0-4.23 0-7.6 2.25M2682.4 2087.47l5.05-.01q5.26 0 10.53.02 6.75.02 13.51-.02h15.39q3.48-.02 6.95.02l3.98.01c3.19.51 3.19.51 5.11 2.05 1.5 3.43 1.5 6.64 1.48 10.31l.02 2.4q.03 3.9.01 7.8l.02 5.44v11.4q-.02 7.3.03 14.59.03 5.61.02 11.24l.01 5.37q.02 3.76 0 7.54l.02 2.22c-.12 8.42-4.25 14.46-9.9 20.4l-1.39 1.52c-5.98 6.42-11.97 9.82-20.78 10.5l-3.78.04-2.11.02q-3.41.04-6.83.04l-4.77.03-9.99.03q-6.38.01-12.77.08-4.93.04-9.85.04l-4.71.04q-3.3.04-6.58 0l-3.78.02c-4.3-.8-5.74-2.08-8.29-5.61-.62-3.3-.62-3.3-.62-7.1l-.01-2.1q-.01-3.44.04-6.87v-4.81q0-5.04.05-10.08.05-6.42.03-12.84a1639 1639 0 0 1 .04-14.67c.01-16.57 2.86-30.36 14.8-42.52 9.04-6.8 18.2-6.6 29.07-6.54m-10.88 26.32c-2.35 4.96-2.07 9.7-2.02 15.12v3.5q0 3.68.03 7.34.04 5.6.01 11.21 0 3.57.03 7.13l-.01 3.4.04 3.16.01 2.77a14.7 14.7 0 0 0 4.39 8.58 171 171 0 0 0 9.93.26l4.88.04q3.72.03 7.45.1l4.73.03 2.25.05c3.42-.02 5.4-.21 8.2-2.26 2.47-3.52 2.69-6.73 2.72-10.97l.03-2.84.01-3.05.02-3.17.02-6.62q.02-5.04.07-10.09l.02-6.44.04-3.03c-.02-5.62-.1-11.74-4.37-16.01-5.08-.3-10.15-.31-15.24-.35q-2.56-.03-5.13-.08-3.7-.08-7.4-.1l-2.31-.06c-3.48.01-5.56.33-8.4 2.38M2785.27 2087.82l9.54-.06 2.52-.01 13.2-.05q6.82-.01 13.65-.08 5.25-.04 10.49-.04l5.03-.03q3.51-.04 7.03-.02l2.1-.04c3.22.04 4.76.1 7.08 2.43a20.1 20.1 0 0 1 1.56 15.02c-1 2.6-1.85 4.63-4.19 6.24-2.95 1.06-5.43 1.06-8.56 1.06l-3.85.01h-2.05q-3.2-.01-6.37.01-9.05.06-18.1.05-5.55-.02-11.08.04h-4.22q-2.95-.02-5.9.02h-3.39c-2.97.37-2.97.37-4.62 3.04-1.92 4.38-1.9 8.46-.26 13.03 1.05 1.72 1.05 1.72 3.12 2.56q3.06.14 6.13.14l3.9.02h2.1l6.48.05q9.2.08 18.43.12 5.63.01 11.27.08l4.29.01q3 0 6.01.05l3.45.02c3.57.62 4.73 1.71 6.94 4.51 1.98 5.08 1.18 11.2 1.19 16.56l.03 3.43c.04 19.27.04 19.27-6.1 26.88l-2.05 2.62-2.07 2.51-2.02 2.65a22 22 0 0 1-5.8 5.04l-1.89 1.2c-5.42 2.63-10.64 3.37-16.61 3.42l-2.11.02q-3.41.04-6.83.04l-4.77.03-9.99.03q-6.38.01-12.77.08-4.93.04-9.85.04l-4.71.04q-3.3.04-6.58 0l-3.78.02c-4.2-.78-5.68-2.3-8.29-5.61-.6-3.16-.6-3.16-.5-6.5l.03-3.34c.51-3.43 1.42-5.39 3.47-8.16 2.77-1.39 5.04-1.14 8.15-1.16l3.91-.03h2.1l6.49-.06q9.22-.1 18.46-.15 5.65-.04 11.3-.1 2.14-.03 4.3-.03 3-.01 6.01-.05l3.47-.03c2.8-.17 2.8-.17 4.65-1.68 2-2.94 2.43-6.25 2.16-9.71q-1.45-3.52-3-7l-2.48-.01q-11.56-.06-23.13-.17-5.95-.06-11.89-.1-5.74 0-11.48-.09l-4.37-.02q-3.08 0-6.14-.06l-3.52-.03c-3.6-.63-4.75-1.7-6.99-4.52-2.17-4.33-1.23-10.12-1.25-14.88l-.06-3.57c-.06-13.85 3-27.5 12.56-38.01 6.24-5.49 12.86-7.69 21.02-7.72M2224.61 2087.7l2.23-.01q3.63-.02 7.27-.03 2.52 0 5.06-.02l10.59-.01q6.78 0 13.58-.06l10.44-.03q2.5 0 5.01-.02 3.5-.03 6.99 0l2.09-.04c3.13.04 4.73.14 7.06 2.33 1.6 3.26 1.47 6.09 1.45 9.69l.02 3.97c-.41 3.62-.8 5.04-3.4 7.53-3.28 1.1-5.71 1.13-9.17 1.14l-3.85.02-8.44.05q-9.07.08-18.13.12-5.55.01-11.1.08l-4.23.01q-2.95 0-5.91.05l-3.4.02c-2.87.26-2.87.26-4.63 2.4-1.36 2.52-1.57 4.24-1.58 7.11l-.06 2.56c.68 3.3 1.87 4.35 4.5 6.44 3 .59 3 .59 6.36.48l3.9.02 2.08-.01q3.23-.02 6.45 0 6.86.03 13.71.01 7.95-.02 15.88.02 3.18.01 6.36-.02l3.9.02 3.44-.01c3.6.6 4.77 1.6 6.92 4.49.4 2.85.56 5.32.53 8.17l.01 2.4q0 2.53-.02 5.05-.02 3.82.03 7.63c.02 11.99-1.35 20.22-9.92 29.06l-1.39 1.51c-5.99 6.37-12 9.77-20.78 10.45l-3.78.04-2.11.02q-3.42.04-6.83.04l-4.77.03-9.99.03q-6.38.01-12.77.08-4.93.04-9.85.04l-4.71.04q-3.3.04-6.58 0l-3.78.02c-4.2-.78-5.68-2.29-8.29-5.61-.66-3.38-.66-3.38-.62-7l-.04-3.63c.85-4.32 2.27-5.61 5.66-8.37 3.05-.63 3.05-.63 6.49-.64l3.91-.05 4.2.02 4.33-.04q5.68-.04 11.37-.04 8.03-.01 16.04-.08a1266 1266 0 0 1 12.43-.04h3.44c2.87 0 2.87 0 5.79-1.13q.12-3.4.19-6.81l.1-3.83c0-3.23 0-3.23-1.42-5.05-2.72-1.9-4.8-1.67-8.1-1.66l-3.9-.01-2.07.01h-6.46q-9.18-.05-18.36-.01-5.61.01-11.23-.03l-4.28.01q-3 .02-5.98 0h-3.44c-4.02-.82-5.52-2.47-8.05-5.62-.63-3.12-.63-3.12-.63-6.6v-3.87l.03-2.01q.05-2.98 0-5.96c.1-13.25 3.12-25.13 11.6-35.56 6.82-6.6 13.08-9.3 22.61-9.3M2382.28 2087.34l3.05-.02 3.17.05 3.17-.05 3.05.02 2.78.01c3.6.93 4.51 2.54 6.5 5.65.38 2.66.54 4.9.5 7.56q0 1.1.02 2.25v4.83q-.02 3.81.01 7.64.04 6.74.03 13.47 0 10.77.06 21.55l-.01 7.52.02 4.62-.02 2.1c.04 4.3.64 7.12 3.39 10.46 2.82.5 5.03.66 7.84.6h2.32l4.86-.06q3.7-.05 7.42-.03l4.72-.04h2.24c3.99-.1 3.99-.1 7.53-1.75 2.51-4.03 2.22-8.47 2.23-13.09l.01-2.23.03-4.78.05-7.56q.1-10.76.15-21.5.03-6.6.1-13.17l.03-5.01q.01-3.51.05-7.01v-2.1c.05-3.02.3-5.04 1.79-7.7 2.31-2.23 3.9-2.09 7.07-2.1l3.2-.02 3.36.05 3.35-.05 3.21.02 2.94.01c2.5.52 2.5.52 4.28 2.3 2.34 4.25 2.35 8.11 2.37 12.93v2.01l.03 11.2v9.68q0 6.17.04 12.32l.02 14.08c.11 23.15.11 23.15-6.11 30.88l-2.06 2.61-2.07 2.51-2.02 2.65a22 22 0 0 1-5.8 5.04l-1.89 1.2c-5.42 2.63-10.64 3.37-16.61 3.42l-2.11.02q-3.41.04-6.83.04l-4.77.03-9.99.03q-6.38.01-12.77.08-4.93.04-9.85.04l-4.71.04q-3.3.04-6.58 0l-3.78.02c-3.29-.61-3.29-.61-6.2-2.53-2.95-4.34-2.79-7.79-2.72-12.93l-.02-3q-.02-4.87.02-9.78v-6.8q0-7.12.03-14.25.05-9.14.01-18.27 0-7.02.02-14.05v-6.73q-.02-4.71.04-9.42l-.02-2.81c.06-4.2.2-6.47 2.43-10.12 2.62-2.37 3.9-2.56 7.4-2.58M2318.44 2059.69l2.56-.05c4.8 0 8.12.2 12 3.36 1.79 3.58 1.33 8 1.43 11.97.2 4.48.81 7.46 3.57 11.03 2.57 1.28 4.47 1.14 7.34 1.18l3.22.07 6.74.1 3.23.08 2.96.04c2.51.53 2.51.53 4.33 2.35 1.75 3.24 1.58 6.02 1.55 9.68l.03 3.97c-.41 3.62-.8 5.04-3.4 7.53-3.01 1-5.07 1.12-8.22 1.14l-3.07.06q-3.21.05-6.42.05l-3.07.08-2.82.03c-2.52.46-2.52.46-4.2 2.47-1.83 4.83-1.63 9.48-1.6 14.6v10.41q.02 5.37-.01 10.75l.01 6.84-.02 3.24c.06 5.62.34 9.57 3.42 14.33l2.12.01q4.8.06 9.57.18 1.64 0 3.34.02c8.07.21 8.07.21 12.2 2.87 2.25 3.71 2.4 6.16 2.33 10.48v3.94c-.66 4.1-1.3 5.04-4.56 7.5-3.25.5-3.25.5-7.07.5h-2.07q-2.18 0-4.34-.03a342 342 0 0 0-6.55-.01c-11.94-.02-19.78-1.48-28.6-9.92-8.79-9.41-11.68-17.26-11.63-29.91v-3.09q-.02-5.03 0-10.05l-.01-7v-14.66q.02-9.4 0-18.8a5611 5611 0 0 1 0-21.38l.01-9.67-.01-2.9.02-2.66v-2.3c.29-2.44.98-4.04 2.25-6.12 4.2-2.79 8.57-2.33 13.44-2.31M2481 1652l15.75-.19 4.89-.08c11.93-.07 23.39.45 32.36 9.27 8.32 9.67 7.38 22.73 7.19 34.69L2541 1712h-60zM2614.88 2109.69l3.37-.09 3.24-.03 2.98-.04c2.53.47 2.53.47 4.31 2.3 2.35 4.18 2.35 7.58 2.37 12.3v2.19l.03 12.16v10.46q0 6.69.04 13.39l.02 15.24v10.88c-.24 3.57-.8 6.28-2.24 9.55-4.46 2.97-8.7 2.37-13.94 2.38l-3.03.07c-7.32.03-7.32.03-10.66-2.22-2.65-4.31-2.5-8.37-2.53-13.37l-.02-2.15-.04-11.95-.02-10.3q0-6.57-.06-13.15-.03-5.07-.02-10.14 0-2.42-.03-4.85v-6.8l-.02-3.9c1.2-11.72 5.68-11.84 16.24-11.93M2614.88 2059.63l2.72-.08c4.23-.02 6.75.07 10.47 2.22 3.66 4.22 3.14 8.72 3.18 14.1l.06 2.11c.04 4.76-.67 8.04-3.31 12.02-3.57 2.97-8.52 2.33-12.94 2.31l-2.42.05c-4.62 0-8.05-.12-11.64-3.36-3.13-6.67-3.12-15.29-1.43-22.4 3.04-7.59 8.22-6.96 15.3-6.97" style="fill: rgb(255, 255, 255);"/></g></svg>