<?xml version="1.0" encoding="utf-8"?>
<svg xmlns="http://www.w3.org/2000/svg" viewBox="-136.4628 -163.4055 772.9254 826.8111" width="772.9254px" height="826.8111px"><g style="" transform="matrix(0.3064590096473694, 0, 0, 0.3064590096473694, 173.3851318359375, 173.38540649414062)" id="object-0"><g transform="matrix(1, 0, 0, 1, -314.168427, 4.424861)"><path d="M 1770.7 -168.67 C 1771.84 -168.67 1772.98 -168.67 1774.16 -168.67 C 1775.39 -168.66 1776.62 -168.65 1777.89 -168.64 C 1779.15 -168.64 1780.41 -168.64 1781.71 -168.63 C 1785.06 -168.63 1788.41 -168.61 1791.76 -168.59 C 1795.18 -168.56 1798.6 -168.56 1802.01 -168.54 C 1808.72 -168.53 1815.42 -168.49 1822.13 -168.45 C 1822.98 -135.07 1823.32 -101.71 1823.43 -68.32 C 1823.45 -62.349 1823.48 -56.378 1823.5 -50.408 C 1823.55 -38.571 1823.59 -26.735 1823.63 -14.899 C 1823.67 -3.554 1823.71 7.79 1823.76 19.134 C 1823.76 20.184 1823.76 20.184 1823.76 21.254 C 1823.78 24.07 1823.79 26.886 1823.8 29.703 C 1823.84 41.379 1823.89 53.056 1823.93 64.732 C 1823.94 67.341 1823.95 69.951 1823.96 72.56 C 1823.97 75.092 1823.98 77.625 1823.99 80.157 C 1824 82.632 1824.01 85.106 1824.02 87.581 C 1824.04 93.514 1824.06 99.447 1824.05 105.38 C 1824.06 115.485 1824.1 125.579 1824.4 135.681 C 1824.52 139.961 1824.61 144.242 1824.69 148.523 C 1824.74 150.508 1824.81 152.492 1824.89 154.475 C 1825.55 169.493 1825.55 169.493 1821.96 174.695 C 1819.46 176.978 1817.01 178.781 1814.13 180.553 C 1813.14 181.388 1812.15 182.223 1811.13 183.084 C 1810.33 183.734 1809.52 184.383 1808.69 185.053 C 1807.77 185.798 1806.85 186.543 1805.91 187.311 C 1804.53 188.42 1804.53 188.42 1803.13 189.553 C 1797.22 194.349 1791.36 199.187 1785.57 204.115 C 1781.1 207.914 1776.57 211.625 1771.98 215.271 C 1762.39 222.954 1752.95 230.826 1743.59 238.79 C 1739.7 242.096 1735.72 245.288 1731.72 248.459 C 1728.65 250.941 1725.64 253.491 1722.63 256.053 C 1718.06 259.943 1713.43 263.732 1708.72 267.459 C 1705.65 269.941 1702.64 272.491 1699.63 275.053 C 1695.06 278.943 1690.43 282.732 1685.72 286.459 C 1682.65 288.941 1679.64 291.491 1676.63 294.053 C 1672.06 297.943 1667.43 301.732 1662.72 305.459 C 1659.65 307.941 1656.64 310.491 1653.63 313.053 C 1649.06 316.943 1644.43 320.732 1639.72 324.459 C 1636.65 326.941 1633.64 329.491 1630.63 332.053 C 1626.14 335.874 1621.6 339.606 1616.98 343.271 C 1607.39 350.954 1597.95 358.826 1588.59 366.79 C 1584.7 370.096 1580.72 373.288 1576.72 376.459 C 1573.65 378.941 1570.64 381.491 1567.63 384.053 C 1563.06 387.943 1558.43 391.732 1553.72 395.459 C 1550.65 397.941 1547.64 400.491 1544.63 403.053 C 1540.06 406.943 1535.43 410.732 1530.72 414.459 C 1527.65 416.941 1524.64 419.491 1521.63 422.053 C 1517.06 425.943 1512.43 429.732 1507.72 433.459 C 1504.65 435.941 1501.64 438.491 1498.63 441.053 C 1494.06 444.943 1489.43 448.732 1484.72 452.459 C 1481.65 454.941 1478.64 457.491 1475.63 460.053 C 1471.14 463.874 1466.6 467.606 1461.98 471.271 C 1452.39 478.954 1442.95 486.826 1433.59 494.79 C 1429.7 498.096 1425.72 501.288 1421.72 504.459 C 1418.65 506.941 1415.64 509.491 1412.63 512.053 C 1408.06 515.943 1403.43 519.732 1398.72 523.459 C 1395.65 525.941 1392.64 528.491 1389.63 531.053 C 1385.06 534.943 1380.43 538.732 1375.72 542.459 C 1372.65 544.941 1369.64 547.491 1366.63 550.053 C 1362.06 553.943 1357.43 557.732 1352.72 561.459 C 1349.65 563.941 1346.64 566.491 1343.63 569.053 C 1339.06 572.943 1334.43 576.732 1329.72 580.459 C 1326.65 582.941 1323.64 585.491 1320.63 588.053 C 1316.14 591.874 1311.6 595.606 1306.98 599.271 C 1297.39 606.954 1287.95 614.826 1278.59 622.79 C 1274.7 626.096 1270.72 629.288 1266.72 632.459 C 1263.65 634.941 1260.64 637.491 1257.63 640.053 C 1253.06 643.943 1248.43 647.732 1243.72 651.459 C 1240.65 653.941 1237.64 656.491 1234.63 659.053 C 1230.06 662.943 1225.43 666.732 1220.72 670.459 C 1217.65 672.941 1214.64 675.491 1211.63 678.053 C 1207.06 681.943 1202.43 685.732 1197.72 689.459 C 1194.65 691.941 1191.64 694.491 1188.63 697.053 C 1184.06 700.943 1179.43 704.732 1174.72 708.459 C 1171.65 710.941 1168.64 713.491 1165.63 716.053 C 1161.14 719.874 1156.6 723.606 1151.98 727.271 C 1142.39 734.954 1132.95 742.826 1123.59 750.79 C 1119.7 754.096 1115.72 757.288 1111.72 760.459 C 1108.65 762.941 1105.64 765.491 1102.63 768.053 C 1098.06 771.943 1093.43 775.732 1088.72 779.459 C 1085.65 781.941 1082.64 784.491 1079.63 787.053 C 1075.06 790.943 1070.43 794.732 1065.72 798.459 C 1062.65 800.941 1059.64 803.491 1056.63 806.053 C 1052.06 809.943 1047.43 813.732 1042.72 817.459 C 1039.65 819.941 1036.64 822.491 1033.63 825.053 C 1029.06 828.943 1024.43 832.732 1019.72 836.459 C 1016.65 838.941 1013.64 841.491 1010.63 844.053 C 1006.14 847.874 1001.6 851.606 996.976 855.271 C 987.386 862.954 977.947 870.826 968.59 878.79 C 964.697 882.096 960.725 885.288 956.722 888.459 C 953.648 890.941 950.637 893.491 947.628 896.053 C 943.059 899.943 938.427 903.732 933.722 907.459 C 930.648 909.941 927.637 912.491 924.628 915.053 C 920.059 918.943 915.427 922.732 910.722 926.459 C 907.648 928.941 904.637 931.491 901.628 934.053 C 897.059 937.943 892.427 941.732 887.722 945.459 C 884.648 947.941 881.637 950.491 878.628 953.053 C 874.059 956.943 869.427 960.732 864.722 964.459 C 861.648 966.941 858.637 969.491 855.628 972.053 C 851.138 975.874 846.595 979.606 841.976 983.271 C 832.386 990.954 822.947 998.826 813.59 1006.79 C 809.697 1010.1 805.725 1013.29 801.722 1016.46 C 798.648 1018.94 795.637 1021.49 792.628 1024.05 C 788.059 1027.94 783.427 1031.73 778.722 1035.46 C 775.648 1037.94 772.637 1040.49 769.628 1043.05 C 765.059 1046.94 760.427 1050.73 755.722 1054.46 C 752.648 1056.94 749.637 1059.49 746.628 1062.05 C 742.059 1065.94 737.427 1069.73 732.722 1073.46 C 729.648 1075.94 726.637 1078.49 723.628 1081.05 C 719.138 1084.87 714.595 1088.61 709.976 1092.27 C 700.386 1099.95 690.947 1107.83 681.59 1115.79 C 677.697 1119.1 673.725 1122.29 669.722 1125.46 C 666.648 1127.94 663.637 1130.49 660.628 1133.05 C 656.059 1136.94 651.427 1140.73 646.722 1144.46 C 643.648 1146.94 640.637 1149.49 637.628 1152.05 C 633.059 1155.94 628.427 1159.73 623.722 1163.46 C 620.648 1165.94 617.637 1168.49 614.628 1171.05 C 610.059 1174.94 605.427 1178.73 600.722 1182.46 C 597.648 1184.94 594.637 1187.49 591.628 1190.05 C 587.059 1193.94 582.427 1197.73 577.722 1201.46 C 574.648 1203.94 571.637 1206.49 568.628 1209.05 C 564.138 1212.87 559.595 1216.61 554.976 1220.27 C 545.386 1227.95 535.947 1235.83 526.59 1243.79 C 522.697 1247.1 518.725 1250.29 514.722 1253.46 C 511.648 1255.94 508.637 1258.49 505.628 1261.05 C 501.059 1264.94 496.427 1268.73 491.722 1272.46 C 488.648 1274.94 485.637 1277.49 482.628 1280.05 C 478.059 1283.94 473.427 1287.73 468.722 1291.46 C 465.648 1293.94 462.637 1296.49 459.628 1299.05 C 455.059 1302.94 450.427 1306.73 445.722 1310.46 C 442.648 1312.94 439.637 1315.49 436.628 1318.05 C 432.059 1321.94 427.427 1325.73 422.722 1329.46 C 419.648 1331.94 416.637 1334.49 413.628 1337.05 C 409.138 1340.87 404.595 1344.61 399.976 1348.27 C 390.386 1355.95 380.947 1363.83 371.59 1371.79 C 367.697 1375.1 363.725 1378.29 359.722 1381.46 C 356.648 1383.94 353.637 1386.49 350.628 1389.05 C 346.059 1392.94 341.427 1396.73 336.722 1400.46 C 333.648 1402.94 330.637 1405.49 327.628 1408.05 C 323.059 1411.94 318.427 1415.73 313.722 1419.46 C 310.648 1421.94 307.637 1424.49 304.628 1427.05 C 300.059 1430.94 295.427 1434.73 290.722 1438.46 C 287.648 1440.94 284.637 1443.49 281.628 1446.05 C 277.059 1449.94 272.427 1453.73 267.722 1457.46 C 264.648 1459.94 261.637 1462.49 258.628 1465.05 C 254.138 1468.87 249.595 1472.61 244.976 1476.27 C 235.386 1483.95 225.947 1491.83 216.59 1499.79 C 212.697 1503.1 208.725 1506.29 204.722 1509.46 C 201.648 1511.94 198.637 1514.49 195.628 1517.05 C 190.214 1521.66 184.734 1526.18 179.128 1530.55 C 178.575 1531.07 178.022 1531.6 177.452 1532.13 C 174.283 1534.07 171.429 1533.96 167.827 1533.92 C 167.086 1533.92 166.346 1533.93 165.582 1533.93 C 163.086 1533.94 160.591 1533.93 158.095 1533.91 C 156.293 1533.91 154.491 1533.92 152.69 1533.92 C 147.727 1533.93 142.766 1533.92 137.803 1533.9 C 132.456 1533.89 127.109 1533.89 121.763 1533.89 C 112.495 1533.9 103.228 1533.89 93.96 1533.87 C 80.561 1533.85 67.161 1533.84 53.762 1533.83 C 32.024 1533.83 10.286 1533.81 -11.453 1533.78 C -32.572 1533.75 -53.692 1533.73 -74.812 1533.72 C -76.113 1533.72 -77.415 1533.72 -78.755 1533.71 C -85.283 1533.71 -91.811 1533.71 -98.339 1533.7 C -152.52 1533.67 -206.69 1533.62 -260.87 1533.55 C -261.23 1526.65 -261.47 1519.76 -261.64 1512.85 C -261.71 1510.51 -261.81 1508.16 -261.93 1505.82 C -262.97 1485.29 -262.97 1485.29 -257.88 1479.41 C -255.02 1476.74 -251.95 1474.59 -248.59 1472.6 C -246.1 1471.08 -243.91 1469.24 -241.68 1467.37 C -240.89 1466.74 -240.09 1466.11 -239.27 1465.46 C -236.74 1463.45 -234.24 1461.41 -231.75 1459.37 C -227.13 1455.58 -222.5 1451.81 -217.87 1448.05 C -213.37 1444.39 -208.86 1440.73 -204.37 1437.05 C -199.88 1433.37 -195.38 1429.71 -190.87 1426.05 C -184.53 1420.9 -178.19 1415.73 -171.87 1410.55 C -164.85 1404.8 -157.82 1399.07 -150.78 1393.35 C -146.97 1390.26 -143.17 1387.16 -139.37 1384.05 C -134.88 1380.37 -130.38 1376.71 -125.87 1373.05 C -119.53 1367.9 -113.19 1362.73 -106.87 1357.55 C -99.85 1351.8 -92.819 1346.07 -85.775 1340.35 C -81.968 1337.26 -78.166 1334.16 -74.372 1331.05 C -69.881 1327.37 -65.378 1323.71 -60.872 1320.05 C -54.526 1314.9 -48.193 1309.73 -41.872 1304.55 C -34.854 1298.8 -27.819 1293.07 -20.775 1287.35 C -16.968 1284.26 -13.166 1281.16 -9.372 1278.05 C -4.881 1274.37 -0.378 1270.71 4.128 1267.05 C 10.474 1261.9 16.807 1256.73 23.128 1251.55 C 30.146 1245.8 37.181 1240.07 44.225 1234.35 C 48.032 1231.26 51.834 1228.16 55.628 1225.05 C 60.119 1221.37 64.622 1217.71 69.128 1214.05 C 75.474 1208.9 81.807 1203.73 88.128 1198.55 C 95.146 1192.8 102.181 1187.07 109.225 1181.35 C 113.032 1178.26 116.834 1175.16 120.628 1172.05 C 125.119 1168.37 129.622 1164.71 134.128 1161.05 C 140.474 1155.9 146.807 1150.73 153.128 1145.55 C 160.143 1139.8 167.173 1134.08 174.214 1128.36 C 179.863 1123.77 185.499 1119.17 191.128 1114.55 C 198.146 1108.8 205.181 1103.07 212.225 1097.35 C 216.032 1094.26 219.834 1091.16 223.628 1088.05 C 228.119 1084.37 232.622 1080.71 237.128 1077.05 C 243.474 1071.9 249.807 1066.73 256.128 1061.55 C 263.146 1055.8 270.181 1050.07 277.225 1044.35 C 281.032 1041.26 284.834 1038.16 288.628 1035.05 C 293.119 1031.37 297.622 1027.71 302.128 1024.05 C 308.474 1018.9 314.807 1013.73 321.128 1008.55 C 328.146 1002.8 335.181 997.07 342.225 991.351 C 346.032 988.259 349.834 985.161 353.628 982.053 C 358.119 978.374 362.622 974.712 367.128 971.053 C 373.474 965.9 379.807 960.734 386.128 955.553 C 393.146 949.801 400.181 944.07 407.225 938.351 C 411.032 935.259 414.834 932.161 418.628 929.053 C 423.119 925.374 427.622 921.712 432.128 918.053 C 438.474 912.9 444.807 907.734 451.128 902.553 C 458.146 896.801 465.181 891.07 472.225 885.351 C 476.032 882.259 479.834 879.161 483.628 876.053 C 488.119 872.374 492.622 868.712 497.128 865.053 C 503.474 859.9 509.807 854.734 516.128 849.553 C 523.146 843.801 530.181 838.07 537.225 832.351 C 541.032 829.259 544.834 826.161 548.628 823.053 C 553.119 819.374 557.622 815.712 562.128 812.053 C 568.474 806.9 574.807 801.734 581.128 796.553 C 588.146 790.801 595.181 785.07 602.225 779.351 C 606.032 776.259 609.834 773.161 613.628 770.053 C 618.119 766.374 622.622 762.712 627.128 759.053 C 633.474 753.9 639.807 748.734 646.128 743.553 C 653.143 737.804 660.173 732.076 667.214 726.359 C 672.863 721.771 678.499 717.166 684.128 712.553 C 691.146 706.801 698.181 701.07 705.225 695.351 C 709.032 692.259 712.834 689.161 716.628 686.053 C 721.119 682.374 725.622 678.712 730.128 675.053 C 736.474 669.9 742.807 664.734 749.128 659.553 C 756.146 653.801 763.181 648.07 770.225 642.351 C 774.032 639.259 777.834 636.161 781.628 633.053 C 786.119 629.374 790.622 625.712 795.128 622.053 C 801.474 616.9 807.807 611.734 814.128 606.553 C 821.146 600.801 828.181 595.07 835.225 589.351 C 839.032 586.259 842.834 583.161 846.628 580.053 C 851.119 576.374 855.622 572.712 860.128 569.053 C 866.474 563.9 872.807 558.734 879.128 553.553 C 886.146 547.801 893.181 542.07 900.225 536.351 C 904.032 533.259 907.834 530.161 911.628 527.053 C 916.119 523.374 920.622 519.712 925.128 516.053 C 931.474 510.9 937.807 505.734 944.128 500.553 C 951.146 494.801 958.181 489.07 965.225 483.351 C 969.032 480.259 972.834 477.161 976.628 474.053 C 981.119 470.374 985.622 466.712 990.128 463.053 C 996.474 457.9 1002.81 452.734 1009.13 447.553 C 1016.15 441.801 1023.18 436.07 1030.22 430.351 C 1034.03 427.259 1037.83 424.161 1041.63 421.053 C 1046.12 417.374 1050.62 413.712 1055.13 410.053 C 1061.47 404.9 1067.81 399.734 1074.13 394.553 C 1081.14 388.804 1088.17 383.076 1095.21 377.359 C 1100.86 372.771 1106.5 368.166 1112.13 363.553 C 1119.15 357.801 1126.18 352.07 1133.22 346.351 C 1137.03 343.259 1140.83 340.161 1144.63 337.053 C 1149.12 333.374 1153.62 329.712 1158.13 326.053 C 1164.47 320.9 1170.81 315.734 1177.13 310.553 C 1184.15 304.801 1191.18 299.07 1198.22 293.351 C 1202.03 290.259 1205.83 287.161 1209.63 284.053 C 1214.12 280.374 1218.62 276.712 1223.13 273.053 C 1229.47 267.9 1235.81 262.734 1242.13 257.553 C 1249.15 251.801 1256.18 246.07 1263.22 240.351 C 1267.03 237.259 1270.83 234.161 1274.63 231.053 C 1279.12 227.374 1283.62 223.712 1288.13 220.053 C 1294.47 214.9 1300.81 209.734 1307.13 204.553 C 1314.15 198.801 1321.18 193.07 1328.22 187.351 C 1332.03 184.259 1335.83 181.161 1339.63 178.053 C 1344.12 174.374 1348.62 170.712 1353.13 167.053 C 1359.47 161.9 1365.81 156.734 1372.13 151.553 C 1379.15 145.801 1386.18 140.07 1393.22 134.351 C 1397.03 131.259 1400.83 128.161 1404.63 125.053 C 1409.12 121.374 1413.62 117.712 1418.13 114.053 C 1424.47 108.9 1430.81 103.734 1437.13 98.553 C 1444.15 92.801 1451.18 87.07 1458.22 81.351 C 1462.03 78.259 1465.83 75.161 1469.63 72.053 C 1474.12 68.374 1478.62 64.712 1483.13 61.053 C 1489.47 55.9 1495.81 50.734 1502.13 45.553 C 1509.14 39.804 1516.17 34.076 1523.21 28.359 C 1528.86 23.771 1534.5 19.166 1540.13 14.553 C 1547.15 8.801 1554.18 3.07 1561.22 -2.649 C 1565.03 -5.741 1568.83 -8.839 1572.63 -11.947 C 1577.12 -15.626 1581.62 -19.288 1586.13 -22.947 C 1592.47 -28.1 1598.81 -33.266 1605.13 -38.447 C 1612.15 -44.199 1619.18 -49.93 1626.22 -55.649 C 1630.03 -58.741 1633.83 -61.839 1637.63 -64.947 C 1642.12 -68.626 1646.62 -72.288 1651.13 -75.947 C 1657.47 -81.1 1663.81 -86.266 1670.13 -91.447 C 1677.15 -97.199 1684.18 -102.93 1691.22 -108.65 C 1695.03 -111.74 1698.83 -114.84 1702.63 -117.95 C 1707.12 -121.63 1711.62 -125.29 1716.13 -128.95 C 1722.47 -134.1 1728.81 -139.27 1735.13 -144.45 C 1738.79 -147.45 1742.46 -150.45 1746.13 -153.45 C 1746.79 -153.99 1747.44 -154.52 1748.12 -155.08 C 1750.29 -156.85 1752.46 -158.62 1754.63 -160.38 C 1755.67 -161.24 1755.67 -161.24 1756.73 -162.11 C 1757.39 -162.64 1758.05 -163.17 1758.72 -163.72 C 1759.31 -164.2 1759.89 -164.68 1760.49 -165.17 C 1764.17 -168.04 1766.1 -168.69 1770.7 -168.67 Z" style="fill: color(srgb-linear 0.776 0.184 0.019); stroke-miterlimit: 19.63; stroke-dashoffset: 100px; paint-order: stroke; stroke-linecap: square; stroke-width: 73.718px;"/><path d="M 1003.13 -1103.4 C 1024.91 -1103.4 1046.69 -1103.4 1069.13 -1103.4 C 1077.05 -1095.5 1077.05 -1095.5 1085.13 -1087.4 C 1087.77 -1085.1 1090.41 -1082.8 1093.13 -1080.4 C 1095.28 -1078.4 1097.4 -1076.3 1099.5 -1074.2 C 1100.09 -1073.6 1100.68 -1073 1101.29 -1072.4 C 1103.24 -1070.5 1105.18 -1068.5 1107.13 -1066.5 C 1108.54 -1065.1 1109.94 -1063.7 1111.35 -1062.3 C 1114.37 -1059.3 1117.38 -1056.3 1120.4 -1053.3 C 1125.17 -1048.5 1129.95 -1043.7 1134.72 -1038.9 C 1145.72 -1027.9 1156.72 -1016.9 1167.71 -1005.9 C 1177.79 -995.76 1187.87 -985.66 1197.96 -975.56 C 1202.7 -970.81 1207.44 -966.06 1212.18 -961.31 C 1215.14 -958.35 1218.09 -955.39 1221.05 -952.43 C 1222.41 -951.07 1223.78 -949.7 1225.14 -948.33 C 1227.01 -946.45 1228.88 -944.58 1230.75 -942.71 C 1231.55 -941.91 1231.55 -941.91 1232.36 -941.09 C 1238.1 -935.37 1244.2 -930.16 1250.55 -925.14 C 1320.02 -870.22 1320.02 -870.22 1325.71 -828.15 C 1328 -808.18 1327.54 -787.93 1326.9 -767.88 C 1326.53 -755.9 1326.61 -743.94 1326.69 -731.96 C 1326.84 -709.88 1326.64 -687.8 1326.24 -665.72 C 1325.85 -643.91 1325.61 -622.11 1325.56 -600.29 C 1325.56 -599.61 1325.56 -598.92 1325.56 -598.22 C 1325.54 -591.99 1325.53 -585.75 1325.52 -579.51 C 1325.49 -564.02 1325.44 -548.53 1325.38 -533.04 C 1325.37 -532.34 1325.37 -531.63 1325.37 -530.91 C 1325.22 -496.79 1324.79 -462.68 1324.35 -428.57 C 1323.73 -381.13 1323.31 -333.69 1323.12 -286.24 C 1323.11 -284.76 1323.11 -283.28 1323.1 -281.8 C 1323.05 -270 1323.01 -258.2 1322.96 -246.4 C 1322.77 -195.53 1322.43 -144.66 1322.05 -93.794 C 1322 -86.274 1321.94 -78.754 1321.89 -71.234 C 1321.68 -40.476 1321.43 -9.719 1321.03 21.037 C 1320.87 32.899 1320.74 44.76 1320.66 56.622 C 1320.6 66.453 1320.49 76.282 1320.32 86.112 C 1320.24 91.061 1320.17 96.008 1320.17 100.958 C 1320.16 105.463 1320.09 109.963 1319.98 114.466 C 1319.95 116.083 1319.94 117.701 1319.95 119.318 C 1320.05 131.931 1320.05 131.931 1315.25 136.912 C 1312.08 139.778 1308.67 142.17 1305.13 144.553 C 1303.84 145.56 1302.56 146.577 1301.29 147.611 C 1300.27 148.396 1299.24 149.181 1298.19 149.99 C 1292.68 154.259 1287.37 158.716 1282.1 163.276 C 1277.99 166.828 1273.81 170.262 1269.55 173.631 C 1265.03 177.217 1260.59 180.894 1256.13 184.553 C 1254.3 186.053 1252.46 187.553 1250.63 189.053 C 1249.72 189.795 1248.81 190.538 1247.88 191.303 C 1030.63 369.053 1030.63 369.053 1027.88 371.299 C 1026.04 372.811 1024.19 374.324 1022.34 375.838 C 1021.43 376.589 1020.51 377.341 1019.57 378.115 C 1018.76 378.776 1017.96 379.438 1017.12 380.119 C 1016.14 380.922 1015.15 381.725 1014.13 382.553 C 1013.51 383.197 1012.89 383.842 1012.25 384.506 C 1004.52 391.874 997.117 391.673 987.093 391.537 C 985.356 391.543 983.618 391.552 981.88 391.565 C 977.102 391.59 972.325 391.564 967.547 391.531 C 962.351 391.503 957.154 391.522 951.958 391.536 C 942.849 391.552 933.741 391.539 924.632 391.506 C 911.088 391.458 897.545 391.456 884.001 391.463 C 861.218 391.473 838.435 391.447 815.653 391.399 C 793.092 391.351 770.532 391.32 747.971 391.312 C 747.271 391.312 746.57 391.311 745.848 391.311 C 739.447 391.308 733.047 391.306 726.646 391.304 C 710.735 391.299 694.825 391.291 678.914 391.282 C 678.189 391.281 677.465 391.281 676.719 391.281 C 641.479 391.26 606.24 391.209 571.001 391.156 C 558.773 391.138 546.545 391.12 534.317 391.102 C 533.179 391.1 533.179 391.1 532.019 391.099 C 496.76 391.048 461.501 391.018 426.242 390.994 C 423.953 390.992 421.664 390.991 419.374 390.989 C 404.204 390.978 389.033 390.968 373.862 390.958 C 343.677 390.938 313.491 390.917 283.306 390.893 C 281.868 390.892 280.431 390.891 278.993 390.89 C 193.147 390.823 107.3 390.713 -7.872 390.553 C -6.141 386.792 -4.207 384.943 -0.934 382.365 C 0.057 381.575 1.048 380.785 2.07 379.971 C 3.079 379.173 4.088 378.375 5.128 377.553 C 6.923 376.099 8.715 374.64 10.503 373.178 C 11.407 372.439 12.311 371.7 13.242 370.939 C 16.414 368.316 19.555 365.657 22.691 362.99 C 27.161 359.191 31.685 355.48 36.281 351.834 C 45.871 344.151 55.31 336.279 64.667 328.315 C 68.56 325.01 72.532 321.818 76.535 318.646 C 79.609 316.165 82.62 313.614 85.628 311.053 C 90.118 307.232 94.662 303.499 99.281 299.834 C 108.871 292.151 118.31 284.279 127.667 276.315 C 131.56 273.01 135.532 269.818 139.535 266.646 C 142.609 264.165 145.62 261.614 148.628 259.053 C 153.118 255.232 157.662 251.499 162.281 247.834 C 171.871 240.151 181.31 232.279 190.667 224.315 C 194.56 221.01 198.532 217.818 202.535 214.646 C 205.609 212.165 208.62 209.614 211.628 207.053 C 216.118 203.232 220.662 199.499 225.281 195.834 C 234.871 188.151 244.31 180.279 253.667 172.315 C 257.56 169.01 261.532 165.818 265.535 162.646 C 268.609 160.165 271.62 157.614 274.628 155.053 C 279.118 151.232 283.662 147.499 288.281 143.834 C 297.871 136.151 307.31 128.279 316.667 120.315 C 320.56 117.01 324.532 113.818 328.535 110.646 C 331.609 108.165 334.62 105.614 337.628 103.053 C 342.118 99.232 346.662 95.499 351.281 91.834 C 360.871 84.151 370.31 76.279 379.667 68.315 C 383.56 65.01 387.532 61.818 391.535 58.646 C 394.609 56.165 397.62 53.614 400.628 51.053 C 405.118 47.232 409.662 43.499 414.281 39.834 C 423.323 32.59 432.241 25.185 441.066 17.678 C 445.41 13.983 449.813 10.379 454.281 6.834 C 463.323 -0.41 472.24 -7.816 481.066 -15.322 C 484.957 -18.625 488.861 -21.909 492.816 -25.135 C 493.603 -25.778 494.391 -26.421 495.203 -27.084 C 497.128 -28.447 497.128 -28.447 499.128 -28.447 C 497.856 -24.331 496.316 -20.674 494.249 -16.896 C 493.666 -15.822 493.083 -14.747 492.483 -13.64 C 491.85 -12.484 491.218 -11.327 490.566 -10.135 C 489.202 -7.621 487.844 -5.105 486.488 -2.588 C 486.134 -1.932 485.78 -1.276 485.416 -0.6 C 481.285 7.088 477.298 14.849 473.316 22.615 C 471.882 25.408 470.449 28.201 469.015 30.994 C 468.675 31.656 468.336 32.318 467.986 32.999 C 460.835 46.921 453.451 60.721 446.128 74.553 C 629.938 74.553 813.748 74.553 1003.13 74.553 C 1003.13 -314.19 1003.13 -702.93 1003.13 -1103.4 Z" style="fill: color(srgb-linear 0.776 0.184 0.019); stroke-miterlimit: 19.63; stroke-dashoffset: 100px; paint-order: stroke; stroke-linecap: square; stroke-width: 73.718px;"/><path d="M 951.128 -855.45 C 951.197 -844.97 951.264 -834.5 951.33 -824.02 C 951.341 -822.22 951.353 -820.41 951.364 -818.61 C 951.511 -795.29 951.642 -771.97 951.74 -748.65 C 951.749 -746.5 951.758 -744.35 951.767 -742.2 C 951.777 -740.03 951.786 -737.86 951.795 -735.69 C 951.8 -734.61 951.804 -733.52 951.809 -732.41 C 951.833 -726.86 951.856 -721.31 951.879 -715.76 C 951.994 -687.88 952.183 -660.01 952.476 -632.14 C 952.668 -613.73 952.812 -595.32 952.923 -576.9 C 952.998 -564.74 953.116 -552.58 953.288 -540.41 C 953.402 -532.05 953.465 -523.7 953.487 -515.34 C 953.502 -510.5 953.539 -505.68 953.639 -500.85 C 953.73 -496.41 953.755 -491.98 953.73 -487.54 C 953.732 -485.94 953.758 -484.34 953.811 -482.74 C 954.173 -471.14 954.173 -471.14 950.763 -466.65 C 947.452 -463.2 943.756 -460.38 939.843 -457.66 C 937.39 -455.93 935.111 -454 932.816 -452.07 C 931.503 -451 931.503 -451 930.164 -449.92 C 920.589 -442.13 911.068 -434.28 901.664 -426.28 C 895.667 -421.19 889.561 -416.24 883.456 -411.27 C 878.472 -407.21 873.529 -403.11 868.628 -398.95 C 861.978 -393.3 855.227 -387.78 848.456 -382.27 C 843.53 -378.26 838.65 -374.2 833.816 -370.07 C 829.38 -366.29 824.862 -362.64 820.253 -359.07 C 814.51 -354.62 809.001 -349.94 803.532 -345.15 C 798.164 -340.46 792.676 -335.93 787.128 -331.45 C 781.247 -326.67 775.404 -321.85 769.628 -316.95 C 762.978 -311.3 756.227 -305.78 749.456 -300.27 C 744.472 -296.21 739.529 -292.11 734.628 -287.95 C 727.978 -282.3 721.227 -276.78 714.456 -271.27 C 709.53 -267.26 704.65 -263.2 699.816 -259.07 C 695.38 -255.29 690.862 -251.64 686.253 -248.07 C 680.51 -243.62 675.001 -238.94 669.532 -234.15 C 664.164 -229.46 658.676 -224.93 653.128 -220.45 C 647.247 -215.67 641.404 -210.85 635.628 -205.95 C 628.978 -200.3 622.227 -194.78 615.456 -189.28 C 610.472 -185.21 605.529 -181.11 600.628 -176.95 C 593.978 -171.3 587.227 -165.78 580.456 -160.28 C 575.53 -156.26 570.65 -152.2 565.816 -148.07 C 561.38 -144.29 556.862 -140.64 552.253 -137.07 C 546.51 -132.62 541.001 -127.94 535.532 -123.15 C 530.164 -118.46 524.676 -113.93 519.128 -109.45 C 513.247 -104.67 507.404 -99.85 501.628 -94.947 C 494.978 -89.299 488.227 -83.779 481.456 -78.275 C 476.472 -74.213 471.529 -70.109 466.628 -65.947 C 459.978 -60.299 453.227 -54.779 446.456 -49.275 C 441.53 -45.26 436.65 -41.198 431.816 -37.072 C 427.38 -33.289 422.862 -29.642 418.253 -26.072 C 412.51 -21.618 407.001 -16.938 401.532 -12.152 C 396.164 -7.457 390.676 -2.928 385.128 1.553 C 379.247 6.331 373.404 11.147 367.628 16.053 C 360.978 21.701 354.227 27.221 347.456 32.725 C 342.472 36.787 337.529 40.891 332.628 45.053 C 325.978 50.701 319.227 56.221 312.456 61.725 C 307.53 65.74 302.65 69.802 297.816 73.928 C 293.38 77.711 288.862 81.358 284.253 84.928 C 278.51 89.382 273.001 94.062 267.532 98.848 C 262.164 103.543 256.676 108.072 251.128 112.553 C 245.247 117.331 239.404 122.147 233.628 127.053 C 226.978 132.701 220.227 138.221 213.456 143.725 C 208.472 147.787 203.529 151.891 198.628 156.053 C 191.978 161.701 185.227 167.221 178.456 172.725 C 173.53 176.74 168.65 180.802 163.816 184.928 C 159.38 188.711 154.862 192.358 150.253 195.928 C 144.51 200.382 139.001 205.062 133.532 209.848 C 128.164 214.543 122.676 219.072 117.128 223.553 C 111.247 228.33 105.404 233.147 99.628 238.053 C 92.978 243.701 86.227 249.221 79.456 254.725 C 74.53 258.74 69.65 262.802 64.816 266.928 C 60.38 270.711 55.862 274.358 51.253 277.928 C 45.51 282.382 40.001 287.062 34.532 291.848 C 29.164 296.543 23.676 301.072 18.128 305.553 C 12.247 310.33 6.404 315.147 0.628 320.053 C -6.022 325.701 -12.773 331.221 -19.544 336.725 C -24.528 340.787 -29.471 344.891 -34.372 349.053 C -41.022 354.701 -47.773 360.221 -54.544 365.725 C -59.47 369.74 -64.35 373.802 -69.184 377.928 C -73.62 381.711 -78.138 385.358 -82.747 388.928 C -88.49 393.382 -93.999 398.062 -99.47 402.848 C -104.84 407.543 -110.32 412.072 -115.87 416.553 C -121.75 421.33 -127.6 426.147 -133.37 431.053 C -140.02 436.701 -146.77 442.221 -153.54 447.725 C -158.53 451.787 -163.47 455.891 -168.37 460.053 C -175.02 465.701 -181.77 471.221 -188.54 476.725 C -193.47 480.74 -198.35 484.802 -203.18 488.928 C -207.62 492.711 -212.14 496.358 -216.75 499.928 C -222.49 504.381 -228 509.061 -233.47 513.846 C -238.83 518.541 -244.31 523.087 -249.87 527.553 C -250.48 528.193 -251.09 528.833 -251.71 529.493 C -259.57 537.052 -267.41 536.662 -277.63 536.515 C -279.43 536.518 -281.24 536.525 -283.05 536.536 C -288 536.553 -292.94 536.521 -297.89 536.481 C -303.24 536.447 -308.58 536.458 -313.92 536.464 C -323.17 536.469 -332.42 536.444 -341.67 536.399 C -355.05 536.333 -368.43 536.313 -381.8 536.303 C -403.5 536.285 -425.2 536.232 -446.9 536.156 C -467.98 536.083 -489.06 536.026 -510.14 535.992 C -511.44 535.99 -512.74 535.988 -514.08 535.986 C -520.6 535.975 -527.12 535.965 -533.64 535.955 C -587.72 535.872 -641.79 535.732 -695.87 535.553 C -696.1 528.579 -696.26 521.606 -696.37 514.63 C -696.41 512.259 -696.47 509.889 -696.55 507.519 C -696.66 504.102 -696.71 500.689 -696.75 497.271 C -696.8 496.219 -696.84 495.167 -696.89 494.082 C -696.89 489.573 -696.81 486.706 -693.9 483.125 C -691.64 481.101 -689.35 479.302 -686.87 477.553 C -685.54 476.456 -685.54 476.456 -684.19 475.338 C -683.47 474.769 -682.74 474.201 -682 473.615 C -676.57 469.322 -671.22 464.942 -665.87 460.553 C -658.85 454.801 -651.82 449.07 -644.77 443.351 C -640.97 440.259 -637.17 437.161 -633.37 434.053 C -628.18 429.803 -622.98 425.576 -617.77 421.35 C -613.97 418.258 -610.16 415.161 -606.37 412.053 C -601.18 407.803 -595.98 403.576 -590.77 399.35 C -586.97 396.258 -583.16 393.161 -579.37 390.053 C -574.18 385.803 -568.98 381.576 -563.77 377.35 C -559.97 374.258 -556.16 371.161 -552.37 368.053 C -547.18 363.803 -541.98 359.576 -536.77 355.35 C -532.97 352.258 -529.16 349.161 -525.37 346.053 C -520.18 341.803 -514.98 337.576 -509.77 333.35 C -505.97 330.258 -502.17 327.161 -498.37 324.053 C -493.19 319.803 -487.98 315.576 -482.77 311.35 C -478.97 308.258 -475.17 305.161 -471.37 302.053 C -466.19 297.803 -460.98 293.576 -455.77 289.35 C -451.97 286.258 -448.17 283.161 -444.37 280.053 C -439.19 275.803 -433.98 271.576 -428.77 267.35 C -424.97 264.258 -421.17 261.161 -417.37 258.053 C -412.19 253.803 -406.98 249.576 -401.77 245.35 C -397.97 242.258 -394.17 239.161 -390.37 236.053 C -385.88 232.374 -381.38 228.712 -376.87 225.053 C -370.53 219.901 -364.19 214.734 -357.87 209.553 C -350.85 203.801 -343.82 198.07 -336.77 192.351 C -332.97 189.259 -329.17 186.161 -325.37 183.053 C -320.19 178.803 -314.98 174.576 -309.77 170.35 C -305.97 167.258 -302.17 164.161 -298.37 161.053 C -293.19 156.803 -287.98 152.576 -282.77 148.35 C -278.97 145.258 -275.17 142.161 -271.37 139.053 C -266.19 134.803 -260.98 130.576 -255.77 126.35 C -251.97 123.258 -248.16 120.161 -244.37 117.053 C -239.19 112.803 -233.98 108.576 -228.77 104.35 C -224.97 101.258 -221.16 98.161 -217.37 95.053 C -212.19 90.803 -206.98 86.576 -201.77 82.35 C -197.97 79.258 -194.16 76.161 -190.37 73.053 C -185.19 68.803 -179.98 64.576 -174.77 60.35 C -170.97 57.258 -167.16 54.161 -163.37 51.053 C -158.19 46.803 -152.98 42.576 -147.77 38.35 C -143.97 35.258 -140.16 32.161 -136.37 29.053 C -131.19 24.803 -125.98 20.576 -120.77 16.35 C -116.97 13.258 -113.17 10.161 -109.37 7.053 C -104.88 3.374 -100.38 -0.288 -95.872 -3.947 C -89.526 -9.099 -83.193 -14.266 -76.872 -19.447 C -69.854 -25.199 -62.819 -30.93 -55.775 -36.649 C -51.968 -39.741 -48.166 -42.839 -44.372 -45.947 C -39.185 -50.197 -33.98 -54.424 -28.774 -58.65 C -24.967 -61.742 -21.165 -64.839 -17.372 -67.947 C -12.185 -72.197 -6.98 -76.424 -1.774 -80.65 C 2.033 -83.742 5.835 -86.839 9.628 -89.947 C 14.815 -94.197 20.02 -98.424 25.226 -102.65 C 29.033 -105.74 32.835 -108.84 36.628 -111.95 C 41.815 -116.2 47.02 -120.42 52.226 -124.65 C 56.033 -127.74 59.835 -130.84 63.628 -133.95 C 68.815 -138.2 74.02 -142.42 79.226 -146.65 C 83.033 -149.74 86.835 -152.84 90.628 -155.95 C 95.815 -160.2 101.02 -164.42 106.226 -168.65 C 110.033 -171.74 113.835 -174.84 117.628 -177.95 C 122.815 -182.2 128.02 -186.42 133.226 -190.65 C 137.033 -193.74 140.835 -196.84 144.628 -199.95 C 149.815 -204.2 155.02 -208.42 160.226 -212.65 C 164.033 -215.74 167.835 -218.84 171.628 -221.95 C 176.119 -225.63 180.622 -229.29 185.128 -232.95 C 191.474 -238.1 197.807 -243.27 204.128 -248.45 C 211.146 -254.2 218.181 -259.93 225.225 -265.65 C 229.032 -268.74 232.834 -271.84 236.628 -274.95 C 241.815 -279.2 247.02 -283.42 252.226 -287.65 C 256.033 -290.74 259.835 -293.84 263.628 -296.95 C 268.815 -301.2 274.02 -305.42 279.226 -309.65 C 283.033 -312.74 286.835 -315.84 290.628 -318.95 C 295.815 -323.2 301.02 -327.42 306.226 -331.65 C 310.033 -334.74 313.835 -337.84 317.628 -340.95 C 322.815 -345.2 328.02 -349.42 333.226 -353.65 C 337.033 -356.74 340.835 -359.84 344.628 -362.95 C 349.815 -367.2 355.02 -371.42 360.226 -375.65 C 364.033 -378.74 367.835 -381.84 371.628 -384.95 C 376.815 -389.2 382.02 -393.42 387.226 -397.65 C 391.033 -400.74 394.835 -403.84 398.628 -406.95 C 403.815 -411.2 409.02 -415.42 414.226 -419.65 C 418.033 -422.74 421.835 -425.84 425.628 -428.95 C 430.815 -433.2 436.02 -437.42 441.226 -441.65 C 445.033 -444.74 448.835 -447.84 452.628 -450.95 C 457.119 -454.63 461.622 -458.29 466.128 -461.95 C 472.474 -467.1 478.807 -472.27 485.128 -477.45 C 492.146 -483.2 499.181 -488.93 506.225 -494.65 C 510.032 -497.74 513.834 -500.84 517.628 -503.95 C 522.815 -508.2 528.02 -512.42 533.226 -516.65 C 537.033 -519.74 540.835 -522.84 544.628 -525.95 C 549.815 -530.2 555.02 -534.42 560.226 -538.65 C 564.033 -541.74 567.835 -544.84 571.628 -547.95 C 576.815 -552.2 582.02 -556.42 587.226 -560.65 C 591.033 -563.74 594.835 -566.84 598.628 -569.95 C 603.815 -574.2 609.02 -578.42 614.226 -582.65 C 618.033 -585.74 621.835 -588.84 625.628 -591.95 C 630.815 -596.2 636.02 -600.42 641.226 -604.65 C 645.033 -607.74 648.835 -610.84 652.628 -613.95 C 657.815 -618.2 663.02 -622.42 668.226 -626.65 C 672.033 -629.74 675.835 -632.84 679.628 -635.95 C 684.815 -640.2 690.02 -644.42 695.226 -648.65 C 699.033 -651.74 702.835 -654.84 706.628 -657.95 C 711.815 -662.2 717.02 -666.42 722.226 -670.65 C 726.033 -673.74 729.835 -676.84 733.628 -679.95 C 738.815 -684.2 744.02 -688.42 749.226 -692.65 C 753.033 -695.74 756.835 -698.84 760.628 -701.95 C 765.119 -705.63 769.622 -709.29 774.128 -712.95 C 780.474 -718.1 786.807 -723.27 793.128 -728.45 C 800.146 -734.2 807.181 -739.93 814.225 -745.65 C 818.032 -748.74 821.834 -751.84 825.628 -754.95 C 830.815 -759.2 836.02 -763.42 841.226 -767.65 C 845.033 -770.74 848.835 -773.84 852.628 -776.95 C 857.815 -781.2 863.02 -785.42 868.226 -789.65 C 872.033 -792.74 875.835 -795.84 879.628 -798.95 C 884.815 -803.2 890.02 -807.42 895.226 -811.65 C 899.033 -814.74 902.835 -817.84 906.628 -820.95 C 911.811 -825.19 917.011 -829.42 922.213 -833.64 C 926.151 -836.84 930.081 -840.04 934.003 -843.26 C 934.855 -843.96 935.707 -844.65 936.585 -845.37 C 938.378 -846.83 940.166 -848.3 941.953 -849.77 C 942.856 -850.51 943.76 -851.25 944.691 -852.01 C 945.899 -853 945.899 -853 947.132 -854.01 C 949.128 -855.45 949.128 -855.45 951.128 -855.45 Z" style="fill: color(srgb-linear 0.776 0.184 0.019); stroke-miterlimit: 19.63; stroke-dashoffset: 100px; paint-order: stroke; stroke-linecap: square; stroke-width: 73.718px;"/><path d="M 1676.13 355.553 C 1676.34 443.736 1676.54 531.919 1676.68 636.808 C 1676.68 638.209 1676.68 639.61 1676.68 641.011 C 1676.72 670.42 1676.76 699.829 1676.79 729.238 C 1676.81 744.012 1676.82 758.785 1676.84 773.558 C 1676.84 775.786 1676.85 778.015 1676.85 780.243 C 1676.89 814.559 1676.94 848.874 1677.02 883.189 C 1677.02 883.927 1677.03 884.664 1677.03 885.425 C 1677.06 897.32 1677.09 909.215 1677.12 921.111 C 1677.2 955.374 1677.28 989.637 1677.31 1023.9 C 1677.31 1024.6 1677.32 1025.31 1677.32 1026.04 C 1677.33 1041.5 1677.34 1056.97 1677.35 1072.44 C 1677.35 1078.66 1677.36 1084.89 1677.36 1091.11 C 1677.36 1091.79 1677.36 1092.47 1677.36 1093.17 C 1677.38 1115.12 1677.43 1137.07 1677.51 1159.01 C 1677.59 1181.74 1677.62 1204.46 1677.6 1227.18 C 1677.59 1240.29 1677.62 1253.39 1677.7 1266.49 C 1677.75 1275.24 1677.75 1283.99 1677.71 1292.74 C 1677.69 1297.73 1677.69 1302.71 1677.75 1307.7 C 1677.81 1312.24 1677.8 1316.78 1677.74 1321.32 C 1677.73 1322.95 1677.74 1324.58 1677.78 1326.21 C 1678.05 1338.93 1678.05 1338.93 1673.3 1343.89 C 1670.12 1346.77 1666.68 1349.16 1663.13 1351.55 C 1661.51 1352.83 1659.9 1354.12 1658.32 1355.43 C 1657.53 1356.05 1656.74 1356.68 1655.92 1357.33 C 1652.3 1360.21 1648.72 1363.13 1645.13 1366.05 C 1640.04 1370.19 1634.94 1374.31 1629.82 1378.4 C 1626.24 1381.27 1622.68 1384.16 1619.13 1387.05 C 1614.04 1391.19 1608.94 1395.31 1603.82 1399.4 C 1600.24 1402.27 1596.68 1405.16 1593.13 1408.05 C 1588.04 1412.19 1582.93 1416.32 1577.8 1420.41 C 1575.01 1422.65 1572.23 1424.91 1569.45 1427.18 C 1563.74 1431.83 1558 1436.46 1552.19 1440.99 C 1545.51 1446.2 1538.98 1451.59 1532.44 1456.99 C 1523.3 1464.55 1514.08 1472.01 1504.8 1479.41 C 1502.01 1481.65 1499.23 1483.91 1496.45 1486.18 C 1490.74 1490.83 1485 1495.46 1479.19 1499.99 C 1472.51 1505.2 1465.98 1510.59 1459.44 1515.99 C 1450.3 1523.55 1441.08 1531.01 1431.8 1538.41 C 1429.01 1540.65 1426.23 1542.91 1423.45 1545.18 C 1417.74 1549.83 1412 1554.46 1406.19 1558.99 C 1400.98 1563.06 1395.85 1567.22 1390.75 1571.43 C 1390.05 1572.01 1389.34 1572.6 1388.61 1573.2 C 1387.18 1574.38 1385.74 1575.57 1384.31 1576.75 C 1380.67 1579.76 1377.03 1582.75 1373.38 1585.74 C 1372.72 1586.28 1372.07 1586.82 1371.39 1587.38 C 1370.77 1587.88 1370.16 1588.39 1369.52 1588.91 C 1368.98 1589.35 1368.45 1589.79 1367.89 1590.24 C 1365.75 1591.84 1363.42 1593.18 1361.13 1594.55 C 1361.13 1548.35 1361.13 1502.15 1361.13 1454.55 C 1027.17 1454.55 693.208 1454.55 349.128 1454.55 C 352.534 1450.47 354.897 1447.7 358.878 1444.55 C 359.835 1443.79 360.791 1443.02 361.777 1442.23 C 362.571 1441.6 362.571 1441.6 363.381 1440.95 C 366.781 1438.23 370.14 1435.45 373.503 1432.68 C 374.598 1431.78 374.598 1431.78 375.714 1430.86 C 380.71 1426.74 385.665 1422.58 390.597 1418.38 C 394.79 1414.82 399.045 1411.34 403.312 1407.87 C 406.466 1405.28 409.58 1402.64 412.691 1399.99 C 417.241 1396.12 421.857 1392.35 426.539 1388.64 C 430.16 1385.72 433.698 1382.7 437.242 1379.69 C 441.553 1376.03 445.923 1372.44 450.312 1368.87 C 453.466 1366.28 456.58 1363.64 459.691 1360.99 C 464.241 1357.12 468.857 1353.35 473.539 1349.64 C 477.16 1346.72 480.698 1343.7 484.242 1340.69 C 488.558 1337.02 492.933 1333.43 497.328 1329.86 C 500.396 1327.33 503.419 1324.76 506.441 1322.18 C 510.877 1318.39 515.394 1314.75 520.003 1311.18 C 525.749 1306.72 531.259 1302.04 536.729 1297.25 C 541.205 1293.34 545.761 1289.54 550.382 1285.8 C 553.518 1283.23 556.606 1280.62 559.691 1277.99 C 564.241 1274.12 568.857 1270.35 573.539 1266.64 C 577.16 1263.72 580.698 1260.7 584.242 1257.69 C 588.553 1254.03 592.923 1250.44 597.312 1246.87 C 600.466 1244.28 603.58 1241.64 606.691 1238.99 C 611.241 1235.12 615.857 1231.35 620.539 1227.64 C 624.16 1224.72 627.698 1221.7 631.242 1218.69 C 635.553 1215.03 639.923 1211.44 644.312 1207.87 C 647.466 1205.28 650.58 1202.64 653.691 1199.99 C 658.241 1196.12 662.857 1192.35 667.539 1188.64 C 671.16 1185.72 674.698 1182.7 678.242 1179.69 C 682.553 1176.03 686.923 1172.44 691.312 1168.87 C 694.466 1166.28 697.58 1163.64 700.691 1160.99 C 705.241 1157.12 709.857 1153.35 714.539 1149.64 C 718.16 1146.72 721.698 1143.7 725.242 1140.69 C 729.553 1137.03 733.923 1133.44 738.312 1129.87 C 741.466 1127.28 744.58 1124.64 747.691 1121.99 C 752.241 1118.12 756.857 1114.35 761.539 1110.64 C 765.16 1107.72 768.698 1104.7 772.242 1101.69 C 776.558 1098.02 780.933 1094.43 785.328 1090.86 C 788.396 1088.33 791.419 1085.76 794.441 1083.18 C 798.877 1079.39 803.394 1075.75 808.003 1072.18 C 813.749 1067.72 819.259 1063.04 824.729 1058.25 C 829.194 1054.35 833.736 1050.56 838.351 1046.83 C 840.466 1045.1 842.552 1043.34 844.625 1041.56 C 845.217 1041.05 845.81 1040.54 846.421 1040.01 C 847.581 1039.02 848.738 1038.01 849.891 1037.01 C 853.907 1033.55 853.907 1033.55 856.128 1033.55 C 854.474 1039.27 851.821 1044.35 849.105 1049.61 C 848.604 1050.59 848.102 1051.57 847.586 1052.58 C 845.979 1055.72 844.366 1058.86 842.753 1061.99 C 841.707 1064.03 840.662 1066.08 839.617 1068.12 C 834.542 1078.02 829.43 1087.91 824.277 1097.78 C 817.191 1111.35 810.163 1124.95 803.128 1138.55 C 987.268 1138.55 1171.41 1138.55 1361.13 1138.55 C 1360.53 967.347 1360.53 967.347 1359.78 796.142 C 1359.71 763.066 1359.71 763.066 1359.7 747.593 C 1359.68 736.047 1359.62 724.504 1359.53 712.959 C 1359.44 701.182 1359.41 689.407 1359.43 677.63 C 1359.44 671.239 1359.42 664.851 1359.34 658.461 C 1359.27 652.68 1359.26 646.902 1359.32 641.121 C 1359.32 639.033 1359.3 636.945 1359.26 634.859 C 1358.91 618.472 1358.91 618.472 1364.39 612.51 C 1367.48 609.625 1370.79 607.151 1374.3 604.8 C 1376.93 603.005 1379.32 600.984 1381.75 598.928 C 1382.62 598.224 1383.49 597.52 1384.39 596.795 C 1387.5 594.25 1390.57 591.657 1393.63 589.053 C 1398.48 584.932 1403.38 580.883 1408.32 576.865 C 1411.45 574.291 1414.54 571.677 1417.63 569.053 C 1422.48 564.932 1427.38 560.883 1432.32 556.865 C 1435.45 554.291 1438.54 551.677 1441.63 549.053 C 1446.48 544.932 1451.38 540.883 1456.32 536.865 C 1459.45 534.291 1462.54 531.677 1465.63 529.053 C 1470.48 524.932 1475.38 520.883 1480.32 516.865 C 1483.45 514.291 1486.54 511.677 1489.63 509.053 C 1494.48 504.932 1499.38 500.883 1504.32 496.865 C 1507.45 494.291 1510.54 491.677 1513.63 489.053 C 1518.48 484.932 1523.38 480.883 1528.32 476.865 C 1531.45 474.291 1534.54 471.677 1537.63 469.053 C 1542.48 464.932 1547.38 460.883 1552.32 456.865 C 1555.45 454.291 1558.54 451.677 1561.63 449.053 C 1566.48 444.932 1571.38 440.883 1576.32 436.865 C 1579.45 434.291 1582.54 431.677 1585.63 429.053 C 1590.48 424.929 1595.39 420.876 1600.33 416.857 C 1603.4 414.332 1606.42 411.758 1609.44 409.178 C 1613.88 405.395 1618.39 401.747 1623 398.178 C 1628.75 393.722 1634.26 389.041 1639.73 384.253 C 1644.2 380.343 1648.75 376.552 1653.36 372.814 C 1657.16 369.71 1660.89 366.537 1664.63 363.357 C 1666.12 362.084 1667.63 360.818 1669.13 359.553 C 1670.04 358.786 1670.95 358.019 1671.89 357.228 C 1674.13 355.553 1674.13 355.553 1676.13 355.553 Z" style="fill: color(srgb-linear 0.776 0.184 0.019); stroke-miterlimit: 19.63; stroke-dashoffset: 100px; paint-order: stroke; stroke-linecap: square; stroke-width: 73.718px;"/></g></g></svg>